Coordinates
version=1
nRows=14
nColumns=40
inDegrees=yes

Units are S.I. units (second, meters, Newtons, ...)
Angles are in degrees.

endheader
time	pelvis_tilt	pelvis_list	pelvis_rotation	pelvis_tx	pelvis_ty	pelvis_tz	hip_flexion_r	hip_adduction_r	hip_rotation_r	knee_angle_r	knee_angle_r_beta	ankle_angle_r	subtalar_angle_r	mtp_angle_r	hip_flexion_l	hip_adduction_l	hip_rotation_l	knee_angle_l	knee_angle_l_beta	ankle_angle_l	subtalar_angle_l	mtp_angle_l	lumbar_extension	lumbar_bending	lumbar_rotation	arm_flex_r	arm_add_r	arm_rot_r	elbow_flex_r	pro_sup_r	wrist_flex_r	wrist_dev_r	arm_flex_l	arm_add_l	arm_rot_l	elbow_flex_l	pro_sup_l	wrist_flex_l	wrist_dev_l
     23.47228571	     -7.67264543	     -4.23091504	     -4.98850281	      0.84956176	      0.92928169	      0.46127409	     30.78128461	     -3.53806636	     -7.71268856	     55.09932009	     55.09932009	      5.42181937	    -17.37953609	      6.11432256	     16.51803573	     -5.47871313	     -8.37592484	     21.57042371	     21.57042371	     14.31993821	     -9.97972784	      0.53722491	    -10.57505289	      5.32124520	      1.02828176	     -0.99654124	    -13.84766160	    -10.99921970	     24.49342532	     46.99423094	      0.00000000	      0.00000000	     15.93336234	    -13.96403110	    -11.66009464	     63.55488791	     46.94839418	      0.00000000	      0.00000000
     23.48457143	     -7.85753538	     -4.40404412	     -5.19851677	      0.84800850	      0.92913488	      0.46232265	     31.38788980	     -3.04759177	     -7.68281052	     53.10156177	     53.10156177	      5.38156094	    -16.73022357	      5.98976696	     16.31394511	     -5.74390985	     -8.42516104	     21.51935618	     21.51935618	     14.51945047	    -10.05472352	      0.55006417	    -10.65713236	      5.57211207	      0.81179650	     -1.95606173	    -14.32222284	    -11.29536443	     24.06863228	     47.02864045	      0.00000000	      0.00000000	     16.39479373	    -14.39329967	    -11.78867737	     64.50173316	     46.97972121	      0.00000000	      0.00000000
     23.49685714	     -8.02660155	     -4.49804777	     -5.45617466	      0.84647361	      0.92890197	      0.46355291	     31.85691740	     -2.60464263	     -7.62181731	     50.75125687	     50.75125687	      4.92552474	    -16.18244841	      4.42572435	     16.12784983	     -5.96691000	     -8.63555239	     21.55725778	     21.55725778	     14.88048500	     -9.98227477	      0.74029795	    -10.83385445	      5.67104139	      0.71180323	     -2.85224139	    -14.64905943	    -12.62871293	     23.55639901	     47.15215012	      0.00000000	      0.00000000	     16.20265712	    -14.79090300	    -11.80583546	     67.59938085	     47.05388490	      0.00000000	      0.00000000
     23.50914286	     -8.20031973	     -4.59627988	     -5.72799817	      0.84489107	      0.92870866	      0.46496168	     32.20483842	     -2.16093998	     -7.63855637	     48.07763057	     48.07763057	      4.44094302	    -15.44321901	      2.69960325	     15.91979867	     -6.18685830	     -8.75353347	     21.54855952	     21.54855952	     15.17322045	    -10.02616897	      0.95676800	    -11.01165190	      5.76837145	      0.58263417	     -3.54610254	    -14.92542201	    -14.12074092	     23.03310568	     47.28979106	      0.00000000	      0.00000000	     16.28036553	    -15.20375152	    -12.13517054	     69.56182793	     47.14507689	      0.00000000	      0.00000000
     23.52142857	     -8.43504236	     -4.71562872	     -5.99633103	      0.84338020	      0.92847711	      0.46652249	     32.54228329	     -1.66026245	     -7.68325607	     45.24648013	     45.24648013	      4.52920078	    -14.41406247	      2.68848589	     15.73508003	     -6.42451204	     -8.83422961	     21.45835713	     21.45835713	     15.34841474	    -10.18407479	      0.95670223	    -11.03190272	      5.94604361	      0.40718707	     -4.26257211	    -15.29500249	    -14.35927590	     22.74041944	     47.31647270	      0.00000000	      0.00000000	     16.70591412	    -15.60008093	    -12.30077206	     70.06106152	     47.17344873	      0.00000000	      0.00000000
     23.53371429	     -8.58295268	     -4.81642015	     -6.26654941	      0.84202827	      0.92833666	      0.46820815	     32.59983685	     -1.21825421	     -7.88232695	     42.09534933	     42.09534933	      4.63387294	    -13.03024968	      2.22403609	     15.42395230	     -6.64112890	     -8.94471894	     21.34131820	     21.34131820	     15.55078788	    -10.29423282	      0.97739264	    -11.18646429	      6.07013050	      0.50211609	     -5.03114906	    -15.63282427	    -14.79997466	     22.49622423	     47.35666479	      0.00000000	      0.00000000	     17.04144451	    -15.77154783	    -12.41465336	     71.21416269	     47.21324268	      0.00000000	      0.00000000
     23.54600000	     -8.86096453	     -4.90426841	     -6.52833074	      0.84076607	      0.92804836	      0.47001398	     32.65481884	     -0.74940769	     -8.13773741	     38.70241406	     38.70241406	      4.68198046	    -11.62756533	      2.10114202	     15.19272639	     -6.85330201	     -9.07500824	     21.10995973	     21.10995973	     15.69276692	    -10.39454325	      1.00569701	    -11.11962964	      6.26781321	      0.43933507	     -5.70426553	    -15.89556534	    -15.09077814	     22.34505871	     47.38120250	      0.00000000	      0.00000000	     17.23103197	    -15.99657646	    -12.49452553	     71.97836006	     47.23958590	      0.00000000	      0.00000000
     23.55828571	     -9.07856934	     -4.88355035	     -6.83525151	      0.83953866	      0.92771928	      0.47209716	     32.59357137	     -0.33731159	     -8.32778508	     35.23397260	     35.23397260	      4.63205105	    -10.00650721	      2.04719427	     14.91176620	     -6.96732061	     -9.22532040	     20.93216847	     20.93216847	     15.86338054	    -10.49717417	      0.98547080	    -11.12471346	      6.15922741	      0.37620916	     -6.31139655	    -16.10376635	    -15.36564687	     22.26959641	     47.40123867	      0.00000000	      0.00000000	     17.43380294	    -16.23491055	    -12.56675622	     72.73704726	     47.26524159	      0.00000000	      0.00000000
     23.57057143	     -9.20472728	     -4.84720617	     -7.07169889	      0.83870478	      0.92737495	      0.47406927	     32.14644391	     -0.05627225	     -8.91446315	     31.43659446	     31.43659446	      4.06232915	     -7.97275430	      0.12197199	     14.44946191	     -7.01639785	     -9.37186932	     20.61929713	     20.61929713	     16.05888954	    -10.58330490	      0.88951107	    -11.23831508	      6.19729413	      0.20751590	     -6.93552721	    -16.11325289	    -16.90942433	     22.98320851	     47.47651997	      0.00000000	      0.00000000	     17.01995301	    -16.58268591	    -12.62627204	     74.72585463	     47.34672605	      0.00000000	      0.00000000
     23.58285714	     -9.35991096	     -4.84819156	     -7.27835325	      0.83801878	      0.92692949	      0.47631778	     31.69822423	      0.39995967	     -9.28688052	     27.80902272	     27.80902272	      3.96788812	     -6.21736023	      0.56040225	     14.01520371	     -7.12230124	     -9.48538143	     20.32543901	     20.32543901	     16.25465749	    -10.66311595	      0.83610323	    -11.20740296	      6.24367926	      0.18251116	     -7.35776885	    -16.22887207	    -17.13288928	     22.88299028	     47.49119789	      0.00000000	      0.00000000	     17.18975788	    -16.67300868	    -12.64770799	     74.94872455	     47.36242770	      0.00000000	      0.00000000
     23.59514286	     -9.54438831	     -4.78838632	     -7.46936603	      0.83755165	      0.92623752	      0.47867422	     31.24259932	      0.78649662	     -9.73917856	     24.38999124	     24.38999124	      3.81066005	     -4.32994886	      1.18651182	     13.58013370	     -7.16140010	     -9.59695068	     19.98097874	     19.98097874	     16.47264448	    -10.72021774	      0.76897374	    -11.08830054	      6.24277522	      0.15192994	     -7.73721778	    -16.22997651	    -17.30178488	     22.87772669	     47.49758110	      0.00000000	      0.00000000	     17.23844271	    -16.74140057	    -12.60196450	     75.19490196	     47.37120832	      0.00000000	      0.00000000
     23.60742857	     -9.56802808	     -4.69821821	     -7.59453865	      0.83741209	      0.92552201	      0.48102344	     30.60597707	      1.06427739	    -10.36801781	     21.34076251	     21.34076251	      3.67567021	     -2.26383005	      1.98029463	     12.95943951	     -7.12900647	     -9.65621237	     19.63420857	     19.63420857	     16.76512901	    -10.77361327	      0.66118079	    -11.08427655	      6.19761190	      0.08198684	     -8.09611740	    -16.26215133	    -17.50073867	     22.98026687	     47.50065186	      0.00000000	      0.00000000	     17.22481664	    -16.78971410	    -12.48303772	     75.42650007	     47.37596825	      0.00000000	      0.00000000
     23.61971429	     -9.58719786	     -4.49122335	     -7.70912971	      0.83751807	      0.92462482	      0.48342790	     30.11661916	      1.11783414	    -11.32108629	     18.99059804	     18.99059804	      3.84166328	      0.27353798	      3.47083413	     12.29061910	     -6.95734773	     -9.72348662	     19.20493548	     19.20493548	     16.98101290	    -10.88217283	      0.53807933	    -11.07356679	      6.04481245	      0.07265679	     -8.51873281	    -16.13825967	    -17.96001873	     23.48807775	     47.49325441	      0.00000000	      0.00000000	     17.15315399	    -16.87161616	    -12.14368418	     75.64150398	     47.38228860	      0.00000000	      0.00000000
     23.63200000	     -9.74279027	     -4.14190403	     -7.78873166	      0.83765294	      0.92312054	      0.48598811	     29.98033994	      1.17565489	    -11.37055365	     17.31898643	     17.31898643	      3.60580579	      1.04214970	      4.01662781	     11.96612647	     -6.68999413	     -9.73205585	     19.12432729	     19.12432729	     17.36727794	    -10.97366679	      0.39952723	    -10.77190125	      5.73399353	     -0.02716707	     -8.74722313	    -16.00639576	    -18.00844462	     23.50653313	     47.49080406	      0.00000000	      0.00000000	     16.98605242	    -16.82756200	    -12.05106522	     75.59546030	     47.37768060	      0.00000000	      0.00000000
